<?xml version="1.0" encoding="utf-8"?>
<svg width="443px" height="144px" viewbox="0 0 443 144" version="1.1" xmlns:xlink="http://www.w3.org/1999/xlink" xmlns="http://www.w3.org/2000/svg">
  <defs>
    <path d="M0 0L443 0L443 144L0 144L0 0Z" id="path_1" />
    <clipPath id="mask_1">
      <use xlink:href="#path_1" />
    </clipPath>
  </defs>
  <g id="Hunter-Text">
    <path d="M0 0L443 0L443 144L0 144L0 0Z" id="Background" fill="none" fill-rule="evenodd" stroke="none" />
    <g clip-path="url(#mask_1)">
      <g id="Hunter" transform="translate(9.10227 19.6364)">
        <path d="M0 0L0 104.728L22.142 104.728L22.142 61.4659L67.0909 61.4659L67.0909 104.728L89.1818 104.728L89.1818 0L67.0909 0L67.0909 43.2102L22.142 43.2102L22.142 0L0 0L0 0ZM283.108 7.3636L261.324 7.3636L261.324 26.1818L250.585 26.1818L250.585 42.5454L261.324 42.5454L261.324 83.4546C261.29 88.6019 262.364 92.8633 264.546 96.2386C266.727 99.6133 269.787 102.102 273.725 103.705C277.662 105.307 282.256 106.005 287.506 105.801C290.335 105.699 292.738 105.418 294.716 104.958C296.693 104.497 298.227 104.096 299.318 103.756L295.892 87.5456C295.346 87.6476 294.562 87.7923 293.54 87.9796C292.517 88.1676 291.494 88.2616 290.472 88.2616C289.006 88.2616 287.719 88.0399 286.611 87.5966C285.503 87.1533 284.642 86.3776 284.029 85.2696C283.415 84.1616 283.108 82.6019 283.108 80.5906L283.108 42.5454L297.887 42.5454L297.887 26.1818L283.108 26.1818L283.108 7.3636L283.108 7.3636ZM378.114 26.1818L378.114 104.728L399.898 104.728L399.898 60.2897C399.898 57.0852 400.622 54.2556 402.071 51.8011C403.52 49.3466 405.497 47.429 408.003 46.0483C410.509 44.6676 413.364 43.9772 416.568 43.9772C418.068 43.9772 419.721 44.0965 421.529 44.3352C423.335 44.5738 424.75 44.8465 425.773 45.1534L425.773 25.8238C424.818 25.5852 423.71 25.3977 422.449 25.2613C421.187 25.125 420.011 25.0568 418.921 25.0568C414.523 25.0568 410.636 26.3096 407.262 28.8153C403.886 31.321 401.483 35.0113 400.051 39.8863L399.233 39.8863L399.233 26.1818L378.114 26.1818L378.114 26.1818ZM198.353 59.3181L198.353 104.728L176.568 104.728L176.568 26.1818L197.33 26.1818L197.33 40.0397L198.25 40.0397C199.988 35.4716 202.903 31.8494 206.995 29.1732C211.085 26.4971 216.045 25.159 221.875 25.159C227.329 25.159 232.085 26.3522 236.142 28.7386C240.199 31.1249 243.353 34.5255 245.603 38.9403C247.853 43.3551 248.978 48.6136 248.978 54.7159L248.978 104.728L227.193 104.728L227.193 58.6022C227.227 53.7954 226 50.0369 223.512 47.3267C221.023 44.6164 217.597 43.2613 213.233 43.2613C210.301 43.2613 207.718 43.892 205.486 45.1534C203.253 46.4147 201.514 48.2471 200.27 50.6505C199.026 53.0539 198.387 55.9431 198.353 59.3181L198.353 59.3181ZM337.847 106.262C329.767 106.262 322.821 104.617 317.009 101.327C311.196 98.0366 306.721 93.3663 303.585 87.3156C300.449 81.2643 298.881 74.0966 298.881 65.8125C298.881 57.7329 300.449 50.642 303.585 44.5397C306.721 38.4374 311.145 33.6818 316.855 30.2727C322.565 26.8636 329.273 25.1591 336.978 25.159C342.159 25.159 346.991 25.9857 351.475 27.6392C355.957 29.2926 359.878 31.7727 363.236 35.0795C366.594 38.3863 369.21 42.5369 371.086 47.5312C372.96 52.5255 373.898 58.3636 373.898 65.0454L373.898 71.0284L320.409 71.0284L320.409 71.0795C320.409 74.9659 321.133 78.3239 322.583 81.1536C324.031 83.9829 326.085 86.1646 328.745 87.6986C331.403 89.2326 334.557 89.9996 338.205 89.9996C340.625 89.9996 342.841 89.6589 344.853 88.9776C346.864 88.2956 348.585 87.2726 350.017 85.9086C351.449 84.5453 352.54 82.8749 353.29 80.8976L373.438 82.2276C372.415 87.0683 370.327 91.2869 367.174 94.8836C364.02 98.4803 359.963 101.276 355.003 103.27C350.043 105.264 344.324 106.262 337.847 106.262L337.847 106.262ZM147.398 26.1818L147.398 71.284C147.432 74.7954 146.741 77.7443 145.327 80.1306C143.912 82.5173 142.063 84.3156 139.779 85.5256C137.495 86.7356 135.04 87.3406 132.415 87.3406C128.29 87.3406 125 85.9939 122.546 83.3006C120.091 80.6077 118.847 76.9431 118.813 72.3068L118.813 26.1818L97.0287 26.1818L97.0287 76.1931C97.0627 82.3294 98.1961 87.5966 100.429 91.9946C102.662 96.3919 105.773 99.7839 109.762 102.171C113.75 104.557 118.37 105.75 123.62 105.75C129.517 105.75 134.52 104.352 138.628 101.557C142.736 98.7613 145.676 95.0626 147.449 90.4606L148.267 90.4606L148.267 104.728L169.182 104.728L169.182 26.1818L147.398 26.1818L147.398 26.1818ZM322.608 49.7812C321.287 52.1242 320.561 54.7066 320.43 57.5284L353.392 57.5284C353.392 54.392 352.71 51.6136 351.347 49.1931C349.983 46.7727 348.099 44.8721 345.696 43.4914C343.292 42.1107 340.505 41.4204 337.335 41.4204C334.028 41.4204 331.105 42.1789 328.566 43.696C326.026 45.2131 324.04 47.2415 322.608 49.7812L322.608 49.7812Z" id="Shape" fill="#01141F" fill-rule="evenodd" stroke="none" />
      </g>
    </g>
  </g>
</svg>