<?xml version="1.0" encoding="utf-8"?>
<svg width="976px" height="976px" viewbox="0 0 976 976" version="1.1" xmlns:xlink="http://www.w3.org/1999/xlink" xmlns="http://www.w3.org/2000/svg">
  <defs>
    <path d="M0 0L975.036 0L975.036 975.036L0 975.036L0 0Z" id="path_1" />
    <clipPath id="mask_1">
      <use xlink:href="#path_1" />
    </clipPath>
  </defs>
  <g id="right-quote-sign">
    <path d="M0 0L975.036 0L975.036 975.036L0 975.036L0 0Z" id="Background" fill="none" fill-rule="evenodd" stroke="none" />
    <g clip-path="url(#mask_1)">
      <g id="Group" transform="translate(-0.0010986328 57.19699)">
        <path d="M368.836 0L64.8361 0C37.2361 0 14.8361 22.4 14.8361 50L14.8361 354C14.8361 381.601 37.2361 404 64.8361 404L210.336 404C208.436 483.601 189.936 547.3 154.936 595.2C127.336 633 85.5371 664.3 29.6361 689C3.9361 700.3 -7.16388 730.7 4.83612 756.101L40.8361 832.101C52.4361 856.5 81.1361 867.201 105.936 856.5C172.136 827.9 228.037 791.7 273.636 747.7C329.237 694 367.336 633.4 387.936 565.8C408.537 498.2 418.836 406 418.836 289L418.836 50C418.836 22.401 396.435 0 368.836 0L368.836 0Z" transform="translate(556.201 0)" id="Shape" fill="#FFFFFF" fill-rule="evenodd" stroke="none" />
        <path d="M106.037 856.3C171.437 827.8 227.037 791.601 272.937 747.7C329.037 694 367.337 633.6 387.937 566.5C408.537 499.4 418.836 406.9 418.836 289L418.836 50C418.836 22.4 396.437 0 368.836 0L64.8361 0C37.2361 0 14.8361 22.4 14.8361 50L14.8361 354C14.8361 381.601 37.2361 404 64.8361 404L210.336 404C208.436 483.601 189.936 547.3 154.936 595.2C127.336 633 85.5361 664.3 29.6361 689C3.9361 700.3 -7.1639 730.7 4.8361 756.101L40.7361 831.901C52.3371 856.3 81.2371 867.101 106.037 856.3L106.037 856.3Z" transform="translate(0 2.2888184E-05)" id="Shape" fill="#FFFFFF" fill-rule="evenodd" stroke="none" />
      </g>
    </g>
  </g>
</svg>